<svg width="195" height="60" viewBox="0 0 195 60" fill="none" xmlns="http://www.w3.org/2000/svg">
<rect y="15.0023" width="56.5016" height="46.2999" rx="10" transform="rotate(-15.3979 0 15.0023)" fill="#19A389"/>
<path d="M45.7055 26.1299C46.0942 27.5414 46.1271 28.9264 45.8042 30.2849C45.475 31.6202 44.7381 32.8313 43.5936 33.9182C42.4491 35.0051 40.8819 35.8226 38.892 36.3706L35.213 37.3839L37.6218 46.1302L31.6868 47.7648L24.9765 23.3999L34.5906 20.7521C36.5342 20.2168 38.2695 20.0999 39.7963 20.4013C41.3231 20.7027 42.5846 21.3511 43.5806 22.3463C44.5766 23.3416 45.2849 24.6028 45.7055 26.1299ZM37.1408 31.7746C38.2746 31.4624 39.0459 30.9637 39.4547 30.2786C39.8634 29.5935 39.934 28.765 39.6663 27.7932C39.3987 26.8213 38.9139 26.1458 38.212 25.7666C37.5101 25.3873 36.5923 25.3538 35.4585 25.6661L32.2307 26.555L33.913 32.6636L37.1408 31.7746Z" fill="#381841"/>
<path d="M93.3925 29.0751C93.3925 30.0511 93.1685 30.9471 92.7205 31.7631C92.2725 32.5631 91.5845 33.2111 90.6565 33.7071C89.7285 34.2031 88.5765 34.4511 87.2005 34.4511H84.6565V40.4991H80.5525V23.6511H87.2005C88.5445 23.6511 89.6805 23.8831 90.6085 24.3471C91.5365 24.8111 92.2325 25.4511 92.6965 26.2671C93.1605 27.0831 93.3925 28.0191 93.3925 29.0751ZM86.8885 31.1871C87.6725 31.1871 88.2565 31.0031 88.6405 30.6351C89.0245 30.2671 89.2165 29.7471 89.2165 29.0751C89.2165 28.4031 89.0245 27.8831 88.6405 27.5151C88.2565 27.1471 87.6725 26.9631 86.8885 26.9631H84.6565V31.1871H86.8885ZM101.625 40.6911C100.313 40.6911 99.129 40.4111 98.073 39.8511C97.033 39.2911 96.209 38.4911 95.601 37.4511C95.009 36.4111 94.713 35.1951 94.713 33.8031C94.713 32.4271 95.017 31.2191 95.625 30.1791C96.233 29.1231 97.065 28.3151 98.121 27.7551C99.177 27.1951 100.361 26.9151 101.673 26.9151C102.985 26.9151 104.169 27.1951 105.225 27.7551C106.281 28.3151 107.113 29.1231 107.721 30.1791C108.329 31.2191 108.633 32.4271 108.633 33.8031C108.633 35.1791 108.321 36.3951 107.697 37.4511C107.089 38.4911 106.249 39.2911 105.177 39.8511C104.121 40.4111 102.937 40.6911 101.625 40.6911ZM101.625 37.1391C102.409 37.1391 103.073 36.8511 103.617 36.2751C104.177 35.6991 104.457 34.8751 104.457 33.8031C104.457 32.7311 104.185 31.9071 103.641 31.3311C103.113 30.7551 102.457 30.4671 101.673 30.4671C100.873 30.4671 100.209 30.7551 99.681 31.3311C99.153 31.8911 98.889 32.7151 98.889 33.8031C98.889 34.8751 99.145 35.6991 99.657 36.2751C100.185 36.8511 100.841 37.1391 101.625 37.1391ZM114.914 29.0031C115.314 28.3791 115.866 27.8751 116.57 27.4911C117.274 27.1071 118.098 26.9151 119.042 26.9151C120.146 26.9151 121.146 27.1951 122.042 27.7551C122.938 28.3151 123.642 29.1151 124.154 30.1551C124.682 31.1951 124.946 32.4031 124.946 33.7791C124.946 35.1551 124.682 36.3711 124.154 37.4271C123.642 38.4671 122.938 39.2751 122.042 39.8511C121.146 40.4111 120.146 40.6911 119.042 40.6911C118.114 40.6911 117.29 40.4991 116.57 40.1151C115.866 39.7311 115.314 39.2351 114.914 38.6271V46.8831H110.81V27.1071H114.914V29.0031ZM120.77 33.7791C120.77 32.7551 120.482 31.9551 119.906 31.3791C119.346 30.7871 118.65 30.4911 117.818 30.4911C117.002 30.4911 116.306 30.7871 115.73 31.3791C115.17 31.9711 114.89 32.7791 114.89 33.8031C114.89 34.8271 115.17 35.6351 115.73 36.2271C116.306 36.8191 117.002 37.1151 117.818 37.1151C118.634 37.1151 119.33 36.8191 119.906 36.2271C120.482 35.6191 120.77 34.8031 120.77 33.7791ZM142.385 31.8591C143.361 32.0671 144.145 32.5551 144.737 33.3231C145.329 34.0751 145.625 34.9391 145.625 35.9151C145.625 37.3231 145.129 38.4431 144.137 39.2751C143.161 40.0911 141.793 40.4991 140.033 40.4991H132.185V23.6511H139.769C141.481 23.6511 142.817 24.0431 143.777 24.8271C144.753 25.6111 145.241 26.6751 145.241 28.0191C145.241 29.0111 144.977 29.8351 144.449 30.4911C143.937 31.1471 143.249 31.6031 142.385 31.8591ZM136.289 30.4671H138.977C139.649 30.4671 140.161 30.3231 140.513 30.0351C140.881 29.7311 141.065 29.2911 141.065 28.7151C141.065 28.1391 140.881 27.6991 140.513 27.3951C140.161 27.0911 139.649 26.9391 138.977 26.9391H136.289V30.4671ZM139.313 37.1871C140.001 37.1871 140.529 37.0351 140.897 36.7311C141.281 36.4111 141.473 35.9551 141.473 35.3631C141.473 34.7711 141.273 34.3071 140.873 33.9711C140.489 33.6351 139.953 33.4671 139.265 33.4671H136.289V37.1871H139.313ZM147.19 33.7791C147.19 32.4031 147.446 31.1951 147.958 30.1551C148.486 29.1151 149.198 28.3151 150.094 27.7551C150.99 27.1951 151.99 26.9151 153.094 26.9151C154.038 26.9151 154.862 27.1071 155.566 27.4911C156.286 27.8751 156.838 28.3791 157.222 29.0031V27.1071H161.326V40.4991H157.222V38.6031C156.822 39.2271 156.262 39.7311 155.542 40.1151C154.838 40.4991 154.014 40.6911 153.07 40.6911C151.982 40.6911 150.99 40.4111 150.094 39.8511C149.198 39.2751 148.486 38.4671 147.958 37.4271C147.446 36.3711 147.19 35.1551 147.19 33.7791ZM157.222 33.8031C157.222 32.7791 156.934 31.9711 156.358 31.3791C155.798 30.7871 155.11 30.4911 154.294 30.4911C153.478 30.4911 152.782 30.7871 152.206 31.3791C151.646 31.9551 151.366 32.7551 151.366 33.7791C151.366 34.8031 151.646 35.6191 152.206 36.2271C152.782 36.8191 153.478 37.1151 154.294 37.1151C155.11 37.1151 155.798 36.8191 156.358 36.2271C156.934 35.6351 157.222 34.8271 157.222 33.8031ZM172.455 26.9631C174.023 26.9631 175.271 27.4751 176.199 28.4991C177.143 29.5071 177.615 30.8991 177.615 32.6751V40.4991H173.535V33.2271C173.535 32.3311 173.303 31.6351 172.839 31.1391C172.375 30.6431 171.751 30.3951 170.967 30.3951C170.183 30.3951 169.559 30.6431 169.095 31.1391C168.631 31.6351 168.399 32.3311 168.399 33.2271V40.4991H164.295V27.1071H168.399V28.8831C168.815 28.2911 169.375 27.8271 170.079 27.4911C170.783 27.1391 171.575 26.9631 172.455 26.9631ZM188.651 40.4991L184.571 34.8831V40.4991H180.467V22.7391H184.571V32.5551L188.627 27.1071H193.691L188.123 33.8271L193.739 40.4991H188.651Z" fill="white"/>
</svg>
